<?xml version="1.0" encoding="UTF-8"?>
<!-- Generator: Adobe Illustrator 26.4.1, SVG Export Plug-In . SVG Version: 6.00 Build 0)  -->
<svg version="1.1" id="Слой_1" xmlns="http://www.w3.org/2000/svg" xmlns:xlink="http://www.w3.org/1999/xlink" x="0px" y="0px" viewBox="0 0 603.5 118.1" style="enable-background:new 0 0 603.5 118.1;" xml:space="preserve">
<style type="text/css">
	.st0{fill-rule:evenodd;clip-rule:evenodd;fill:#071F77;}
	.st1{fill-rule:evenodd;clip-rule:evenodd;fill:#ECE010;}
</style>
<g>
	<g>
		<path class="st0" d="M537.7,43.5c0-0.2,0-0.4-0.2-0.6c0-0.2-0.2-0.4-0.4-0.4c-0.2-0.2-0.2-0.2-0.4-0.4c-0.2,0-0.4-0.2-0.6-0.2    h-7.7c-0.4,0-0.7,0.2-0.9,0.4c-0.2,0.2-0.4,0.6-0.4,0.9v22.8c0,14.2,31.3,14.2,31.3,0V43.5c0-0.2,0-0.4-0.2-0.6    c0-0.2-0.2-0.4-0.4-0.4c-0.2-0.2-0.2-0.2-0.4-0.4c-0.2,0-0.4-0.2-0.6-0.2h-7.7c-0.4,0-0.7,0.2-0.9,0.4c-0.2,0.2-0.4,0.6-0.4,0.9    v21.5c0,4.3-10.3,4.3-10.3,0L537.7,43.5L537.7,43.5z"/>
		<path class="st0" d="M587.3,43.7c-0.2-0.4-0.4-0.7-0.7-0.9c-0.4-0.2-0.7-0.4-1.1-0.4H572c-0.4,0-0.7,0-0.9,0.6    c-0.4,0.2-0.6,0.6-0.7,0.9l-9.5,31.1c0,0.2,0,0.4,0,0.6s0,0.4,0.2,0.6c0,0.2,0.2,0.2,0.4,0.2c0.2,0.2,0.4,0.2,0.6,0.2h7.3    c0.4,0,0.7-0.2,1.1-0.4c0.4-0.2,0.6-0.6,0.7-0.9l1.3-4.3h12.7l1.3,4.3c0.2,0.4,0.4,0.7,0.7,0.9s0.7,0.4,1.1,0.4h7.3    c0.2,0,0.4,0,0.6-0.2c0.2,0,0.4-0.2,0.6-0.4c0-0.2,0.2-0.4,0.2-0.6s0-0.4,0-0.6L587.3,43.7z M575.1,62.4l3.6-11.6l3.6,11.6H575.1z    "/>
	</g>
	<g>
		<path class="st0" d="M173.3,43.5c0-0.2,0-0.4-0.2-0.6c0-0.2-0.2-0.4-0.4-0.4c-0.2-0.2-0.2-0.2-0.4-0.4c-0.2,0-0.4-0.2-0.6-0.2    h-7.7c-0.4,0-0.7,0.2-0.9,0.4c-0.2,0.2-0.4,0.6-0.4,0.9v22.8c0,14.2,31.3,14.2,31.3,0V43.5c0-0.2,0-0.4-0.2-0.6    c0-0.2-0.2-0.4-0.4-0.4c-0.2-0.2-0.2-0.2-0.4-0.4c-0.2,0-0.4-0.2-0.6-0.2h-7.7c-0.4,0-0.7,0.2-0.9,0.4c-0.2,0.2-0.4,0.6-0.4,0.9    v21.5c0,4.3-10.3,4.3-10.3,0L173.3,43.5L173.3,43.5z"/>
		<path class="st0" d="M269.7,74.9c0,0.2,0,0.4,0.2,0.6c0,0.2,0.2,0.4,0.4,0.4c0.2,0.2,0.2,0.2,0.4,0.4c0.2,0,0.4,0.2,0.6,0.2h7.7    c0.2,0,0.4,0,0.6-0.2c0.2,0,0.4-0.2,0.4-0.4c0.2-0.2,0.2-0.2,0.4-0.4c0-0.2,0.2-0.4,0.2-0.6V43.5c0-0.2,0-0.4-0.2-0.6    c0-0.2-0.2-0.4-0.4-0.4c-0.2-0.2-0.2-0.2-0.4-0.4c-0.2,0-0.4-0.2-0.6-0.2h-7.7c-0.2,0-0.4,0-0.6,0.2c-0.2,0-0.4,0.2-0.4,0.4    c-0.2,0.2-0.2,0.2-0.4,0.4c0,0.2-0.2,0.4-0.2,0.6V74.9z"/>
		<path class="st0" d="M225,42.7c0.4,0.2,0.7,0.4,0.9,0.7c0.2,0.4,0.4,0.7,0.4,1.1v5.6c0,0.2,0,0.4-0.2,0.6    c-0.2,0.2-0.2,0.4-0.4,0.6c-0.2,0.2-0.4,0.2-0.6,0.2s-0.4,0-0.7-0.2c-2.6-1.1-15-3-14.8,0.9c0,2.4,3,2.2,4.7,2.2    c7.1,0.2,14.6,1.9,14.6,10.9c0,5.2-2.6,8.6-6.4,9.9c-5.1,1.9-15.5,1.7-20.6,0c-0.4-0.2-0.7-0.4-0.9-0.7c-0.2-0.4-0.4-0.7-0.4-1.1    v-5.6c0-0.2,0-0.4,0.2-0.6s0.2-0.4,0.4-0.6c0.2-0.2,0.4-0.2,0.6-0.2s0.4,0,0.6,0.2c2.6,1.1,15.7,3.2,15.7-0.9    c-0.2-2.4-2.6-2.2-4.5-2.2c-7.3,0-14.8-2.1-14.8-10.9c0-5.2,2.6-8.6,6.4-9.9C210.2,40.9,219.9,40.9,225,42.7z"/>
		<path class="st0" d="M154.8,42.7c0.4,0.2,0.7,0.4,0.9,0.7c0.2,0.4,0.4,0.7,0.4,1.1v5.6c0,0.2,0,0.4-0.2,0.7    c-0.2,0.2-0.2,0.4-0.4,0.6c-0.2,0-0.4,0.2-0.6,0.2s-0.4,0-0.6-0.2c-2.6-1.1-15-3-14.8,0.9c0.2,2.4,3,2.2,4.7,2.2    c7.3,0.2,14.6,1.9,14.6,10.9c0,5.2-2.6,8.6-6.4,9.9c-5.1,1.9-15.5,1.7-20.6,0c-0.4-0.2-0.7-0.4-0.9-0.7c-0.2-0.4-0.4-0.7-0.4-1.1    V68c0-0.2,0-0.4,0.2-0.6s0.2-0.4,0.4-0.6c0.2-0.2,0.4-0.2,0.6-0.2s0.4,0,0.6,0.2c2.6,1.1,15.7,3.2,15.7-0.9    c-0.2-2.4-2.6-2.2-4.5-2.2c-7.3,0-14.8-2.1-14.8-10.9c0-5.2,2.6-8.6,6.4-9.9C140.2,40.9,149.7,40.9,154.8,42.7L154.8,42.7z"/>
		<path class="st0" d="M253.8,54.9h-10.5V43.5c0-0.4-0.2-0.7-0.4-0.9c-0.2-0.2-0.6-0.4-0.9-0.4h-7.7c-0.2,0-0.4,0-0.6,0.2    c-0.2,0-0.4,0.2-0.4,0.4c-0.2,0.2-0.2,0.2-0.4,0.4c0,0.2-0.2,0.4-0.2,0.6v31.5c0,0.2,0,0.4,0.2,0.6c0,0.2,0.2,0.4,0.4,0.4    c0.2,0.2,0.2,0.2,0.4,0.4c0.2,0,0.4,0.2,0.6,0.2h7.7c0.4,0,0.7-0.2,0.9-0.4s0.4-0.6,0.4-0.9V63.9h10.5v11.4c0,0.4,0.2,0.7,0.4,0.9    c0.2,0.2,0.6,0.4,0.9,0.4h7.7c0.4,0,0.7-0.2,0.9-0.4c0.2-0.2,0.4-0.6,0.4-0.9V43.5c0-0.4-0.2-0.7-0.4-0.9s-0.6-0.4-0.9-0.4h-7.7    c-0.4,0-0.7,0.2-0.9,0.4s-0.4,0.6-0.4,0.9V54.9z"/>
	</g>
	<g>
		<path class="st0" d="M458.3,50.8h14.6c0.2,0,0.4,0,0.6-0.2c0.2,0,0.4-0.2,0.4-0.4c0.2-0.2,0.2-0.2,0.4-0.4c0-0.2,0.2-0.4,0.2-0.6    v-5.8c0-0.2,0-0.4-0.2-0.6c0-0.2-0.2-0.4-0.4-0.4c-0.2-0.2-0.2-0.2-0.4-0.4c-0.2,0-0.4-0.2-0.6-0.2h-21.7c-0.9,0-1.7,0.4-2.4,0.9    c-0.6,0.6-0.9,1.5-0.9,2.4v27.3c0,0.9,0.4,1.7,0.9,2.4c0.6,0.6,1.5,0.9,2.4,0.9h21.7c0.2,0,0.4,0,0.6-0.2c0.2,0,0.4-0.2,0.4-0.4    c0.2-0.2,0.2-0.2,0.4-0.4c0-0.2,0.2-0.4,0.2-0.6v-5.8c0-0.2,0-0.4-0.2-0.6c0-0.2-0.2-0.4-0.4-0.4c-0.2-0.2-0.2-0.2-0.4-0.4    c-0.2,0-0.4-0.2-0.6-0.2h-14.6v-4.3H471c0.4,0,0.7-0.2,0.9-0.4c0.2-0.2,0.4-0.6,0.4-0.9v-5.8c0-0.4-0.2-0.7-0.4-0.9    c-0.2-0.2-0.6-0.4-0.9-0.4h-12.7L458.3,50.8L458.3,50.8z"/>
		<path class="st0" d="M415.2,50.8h8.4v24.3c0,0.2,0,0.4,0.2,0.6c0,0.2,0.2,0.4,0.4,0.4c0.2,0.2,0.2,0.2,0.4,0.4    c0.2,0,0.4,0.2,0.6,0.2h7.7c0.2,0,0.4,0,0.6-0.2c0.2,0,0.4-0.2,0.4-0.4c0-0.2,0.2-0.2,0.4-0.4c0-0.2,0.2-0.4,0.2-0.6V50.8h8.4    c0.2,0,0.4,0,0.6-0.2c0.2,0,0.4-0.2,0.4-0.4c0.2-0.2,0.2-0.2,0.4-0.4c0-0.2,0.2-0.4,0.2-0.6v-5.8c0-0.2,0-0.4-0.2-0.6    c0-0.2-0.2-0.4-0.4-0.4c-0.2-0.2-0.2-0.2-0.4-0.4c-0.2,0-0.4-0.2-0.6-0.2h-27.3c-0.2,0-0.4,0-0.6,0.2c-0.2,0.2-0.4,0.2-0.4,0.4    c-0.2,0.2-0.2,0.2-0.4,0.4c0,0.2-0.2,0.4-0.2,0.6v5.8c0,0.2,0,0.4,0.2,0.6c0,0.2,0.2,0.4,0.4,0.4c0.2,0.2,0.2,0.2,0.4,0.4    C414.9,50.8,415,50.8,415.2,50.8z"/>
		<path class="st0" d="M408.3,42.9c0.4,0.2,0.7,0.4,0.9,0.7c0.2,0.4,0.4,0.7,0.4,1.1v5.6c0,0.2,0,0.4-0.2,0.6    c-0.2,0.2-0.2,0.4-0.4,0.6c-0.2,0.2-0.4,0.2-0.6,0.2c-0.2,0-0.4,0-0.6-0.2c-2.6-1.3-15-3.2-14.8,0.9c0,2.4,3,2.2,4.7,2.2    c7.1,0.2,14.6,1.9,14.6,10.9c0,5.2-2.6,8.6-6.4,9.9c-5.1,1.9-15.5,1.7-20.6,0c-0.4-0.2-0.7-0.4-0.9-0.7c-0.2-0.4-0.4-0.7-0.4-1.1    V68c0-0.2,0-0.4,0.2-0.7c0.2-0.2,0.2-0.4,0.4-0.6c0.2-0.2,0.4-0.2,0.6-0.2c0.2,0,0.4,0,0.7,0.2c2.6,1.1,15.7,3,15.7-0.9    c0-2.4-2.6-2.2-4.5-2.2c-7.3,0-14.8-2.1-14.8-10.9c0-5.2,2.6-8.6,6.4-9.9C393.7,41.2,403.3,41.2,408.3,42.9z"/>
		<path class="st0" d="M505.3,65.9c8.2-6.2,6-23.6-6.7-23.6h-16.5c-0.4,0-0.9,0-1.3,0.2c-0.4,0.2-0.7,0.4-1.1,0.7    c-0.4,0.4-0.6,0.7-0.7,1.1c-0.2,0.4-0.2,0.9-0.2,1.3v29.6c0,0.4,0.2,0.7,0.4,0.9c0.2,0.2,0.6,0.4,0.9,0.4h7.7    c0.2,0,0.4-0.2,0.6-0.2c0.2-0.2,0.2-0.2,0.4-0.4c0.2,0,0.4-0.2,0.4-0.4c0.2-0.2,0.2-0.4,0.2-0.6V68h6.4l2.6,7.3    c0.2,0.4,0.4,0.7,0.7,0.9c0.4,0.2,0.7,0.4,1.1,0.4h7.3c0.2,0,0.4,0,0.6-0.2c0.2,0,0.2-0.2,0.4-0.4c0-0.2,0.2-0.4,0.2-0.6    c0.2-0.2,0-0.4,0-0.6L505.3,65.9z M496.3,59.4h-7.1v-8.6h7.1C501,50.8,501,59.4,496.3,59.4z"/>
		<path class="st0" d="M325.7,43.3l-6.6,13.9l-6.7-14c-0.2-0.4-0.4-0.6-0.6-0.7c-0.2-0.2-0.6-0.2-0.9-0.2h-8.6    c-0.4,0-0.7,0.2-1.1,0.4c-0.4,0.2-0.6,0.7-0.6,1.1l-3.2,31.3c0,0.2,0,0.4,0,0.6s0.2,0.4,0.4,0.6s0.2,0.2,0.4,0.4    c0.2,0,0.4,0.2,0.6,0.2h7.7c0.4,0,0.7-0.2,1.1-0.4c0.4-0.4,0.6-0.7,0.6-1.1l1.7-16.1l5.6,12.2c0.2,0.2,0.4,0.6,0.6,0.7    c0.2,0.2,0.6,0.2,0.9,0.2h4.7c0.4,0,0.6,0,0.9-0.2c0.2-0.2,0.6-0.4,0.6-0.7l5.6-12l1.7,16.1c0,0.4,0.2,0.7,0.6,1.1    c0.4,0.4,0.7,0.4,1.1,0.4h7.7c0.2,0,0.4,0,0.6-0.2c0.2,0,0.4-0.2,0.4-0.4c0.2-0.2,0.2-0.4,0.4-0.6c0-0.2,0-0.4,0-0.6L337.9,44    c0-0.4-0.2-0.7-0.6-1.1c-0.4-0.4-0.7-0.4-1.1-0.4h-8.8c-0.4,0-0.6,0-0.9,0.2C326.1,42.9,325.9,42.9,325.7,43.3z"/>
		<path class="st0" d="M371.6,43.7c-0.2-0.4-0.4-0.7-0.7-0.9c-0.4-0.2-0.7-0.4-1.1-0.4h-13.5c-0.4,0-0.7,0-0.9,0.6    c-0.4,0.2-0.6,0.6-0.7,0.9L345,74.9c0,0.2,0,0.4,0,0.6c0,0.2,0,0.4,0.2,0.6c0,0.2,0.2,0.2,0.4,0.2c0.2,0.2,0.4,0.2,0.6,0.2h7.3    c0.4,0,0.7-0.2,1.1-0.4c0.4-0.2,0.6-0.6,0.7-0.9l1.3-4.3h12.7l1.3,4.3c0.2,0.4,0.4,0.7,0.7,0.9c0.4,0.2,0.7,0.4,1.1,0.4h7.3    c0.2,0,0.4,0,0.6-0.2c0.2,0,0.4-0.2,0.6-0.4c0-0.2,0.2-0.4,0.2-0.6c0-0.2,0-0.4,0-0.6L371.6,43.7z M359.4,62.4l3.6-11.6l3.6,11.6    H359.4z"/>
	</g>
	<g>
		<path class="st0" d="M59.8,5.7c10.5,0,20.8,3.2,29.6,9c8.8,5.8,15.5,14.2,19.7,24c4.1,9.7,5.1,20.4,3,30.9    C110,79.8,105,89.3,97.5,96.8s-16.9,12.5-27.3,14.6c-10.3,2.1-21,0.9-30.7-3c-9.7-4.1-18-11-23.8-19.8s-9-19.1-9-29.6    c0-14.2,5.6-27.7,15.5-37.6C32.3,11.3,45.8,5.7,59.8,5.7z"/>
		<path class="st1" d="M83.6,25.9c-0.4,2.1-1.5,3.9-3,5.2c-0.2,0.2-0.6,0.4-0.7,0.4c-0.4,0-0.6,0-0.9,0c-2.1-0.4-3.9-1.5-5.2-3    c-0.2-0.2-0.4-0.6-0.4-0.7c0-0.4,0-0.6,0-0.9c0.4-2.1,1.5-3.9,3-5.2c0.2-0.2,0.6-0.4,0.7-0.4c0.4,0,0.6,0,0.9,0    c2.1,0.4,3.9,1.5,5.2,3c0.2,0.2,0.4,0.6,0.4,0.7C83.6,25.3,83.6,25.5,83.6,25.9L83.6,25.9z M96.9,42c-1.3,1.5-3.2,2.6-5.2,3.2    c-0.4,0-0.6,0-0.9,0c-0.4,0-0.6-0.2-0.7-0.4c-1.5-1.3-2.6-3.2-3.2-5.2c0-0.4,0-0.6,0-0.9s0.2-0.6,0.4-0.7c1.3-1.5,3.2-2.6,5.2-3.2    c0.4,0,0.6,0,0.9,0c0.4,0,0.6,0.2,0.7,0.4c1.5,1.3,2.6,3.2,3.2,5.2c0,0.4,0,0.6,0,0.9C97.3,41.4,97.1,41.6,96.9,42L96.9,42z     M43.5,21.6c1.5,1.5,2.6,3.4,3,5.2c0,0.4,0,0.6,0,0.9s-0.2,0.6-0.4,0.7c-1.5,1.5-3.2,2.6-5.2,3c-0.4,0-0.6,0-0.9,0    c-0.4,0-0.6-0.2-0.7-0.4c-1.5-1.5-2.6-3.4-3-5.2c0-0.4,0-0.6,0-0.9s0.2-0.6,0.4-0.7c1.5-1.5,3.2-2.6,5.2-3c0.4,0,0.6,0,0.9,0    C43,21.4,43.4,21.4,43.5,21.6z M27.3,34.7c2.1,0.6,3.7,1.7,5.2,3.2c0.2,0.2,0.4,0.6,0.4,0.7c0,0.4,0,0.6,0,0.9    c-0.6,2.1-1.5,3.9-3.2,5.2c-0.2,0-0.6,0.2-0.7,0.2c-0.4,0-0.6,0-0.9,0c-2.1-0.6-3.7-1.5-5.2-3.2c-0.2-0.2-0.4-0.6-0.4-0.7    c0-0.2,0-0.6,0-0.9c0.6-2.1,1.5-3.9,3.2-5.2c0.2-0.2,0.6-0.4,0.7-0.4C26.5,34.5,26.9,34.5,27.3,34.7z M64.1,18.4    c0.6,2.1,0.6,4.1,0,6c0,0.4-0.2,0.6-0.4,0.7c-0.2,0.2-0.4,0.4-0.7,0.4c-2.1,0.6-4.1,0.6-6,0c-0.4,0-0.6-0.2-0.7-0.4    c-0.2-0.2-0.4-0.4-0.4-0.7c-0.6-2.1-0.6-4.1,0-6.2c0-0.4,0.2-0.6,0.4-0.7c0.2-0.2,0.4-0.4,0.7-0.4c2.1-0.6,4.1-0.6,6,0    c0.4,0,0.6,0.2,0.7,0.4C63.8,17.8,64,18.2,64.1,18.4z"/>
		<path class="st1" d="M62.1,69.5c3.6-5.4,6-11.6,6.7-18c0-0.2,0-0.2,0.2-0.4c0-0.2,0.2-0.2,0.4-0.2s0.2,0,0.4,0    c0.2,0,0.2,0,0.4,0.2c2.4,1.9,5.2,3.4,8.2,4.3c0.2,0,0.4,0.2,0.4,0.4c0.2,0.2,0.2,0.4,0,0.6c-1.5,7.5-4.5,14.4-9,20.6    c0,0.2-0.2,0.2-0.2,0.2c-0.2,0-0.2,0.2-0.4,0.2c-0.2,0-0.2,0-0.4,0s-0.2,0-0.4-0.2c-2.2-1.9-4.5-3.9-6.4-6.2    c-0.2-0.2-0.2-0.4-0.2-0.6C61.9,69.9,62.1,69.7,62.1,69.5z"/>
		<path class="st1" d="M59.3,86.9c-9.4-7.7-15.9-18.5-18.3-30.5c0-0.2,0-0.4,0-0.6c0.2-0.2,0.2-0.4,0.4-0.4c3-0.9,5.8-2.4,8.2-4.3    c0.2,0,0.2-0.2,0.4-0.2s0.2,0,0.4,0c0.2,0,0.2,0.2,0.4,0.2c0,0.2,0.2,0.2,0.2,0.4c1.5,11,7.3,21,15.9,27.9l0.2,0.2    c0,0.2,0,0.2,0.2,0.4c0,0.2,0,0.2,0,0.4c0,0.2,0,0.2-0.2,0.4c-1.9,2.2-4.1,4.3-6.4,6.2c-0.2,0.2-0.4,0.2-0.6,0.2    C59.6,87.1,59.5,86.9,59.3,86.9z"/>
		<path class="st1" d="M97.8,60.3c1.3-0.7,2.2-1.9,3-3.2c0.6-1.3,0.7-2.8,0.6-4.3c0-0.2,0-0.2-0.2-0.4l-0.2-0.2c-0.2,0-0.2,0-0.4,0    c-0.2,0-0.2,0-0.4,0.2c-5.2,3.4-11.6,4.9-17.8,3.9c-0.2,0-0.4,0-0.6,0.2c-0.2,0.2-0.2,0.4-0.4,0.6c-0.9,4.5-2.4,9-4.5,13.3    c0,0.2,0,0.2,0,0.4c0,0.2,0,0.2,0,0.4c0,0.2,0.2,0.2,0.2,0.4c0,0.2,0.2,0.2,0.2,0.2c5.1,2.2,10.7,3.6,16.1,3.6    c0.2,0,0.4,0,0.6-0.2c0.2-0.2,0.4-0.2,0.4-0.4C96.7,69.9,97.7,65,97.8,60.3"/>
		<path class="st1" d="M67.7,49.1c1.9-0.4,19.8-3.6,13.5-8.6c-5.4-4.3-11.8-7.7-18.3-9.5c-2.1-0.6-4.1-0.6-6.2,0    c-6.7,1.9-12.9,5.2-18.3,9.7c-6.4,5.2,11.6,8.4,13.5,8.6c1.3,3.9,4.3,9.2,7.9,9.2C63.2,58.5,66.4,53,67.7,49.1z"/>
		<path class="st1" d="M25,74.4c-1.9-4.5-3-9.4-3.2-14.2c-1.3-0.7-2.2-1.9-3-3.2c-0.6-1.3-0.7-2.8-0.6-4.3c0-0.2,0-0.2,0.2-0.4    l0.2-0.2c0.2,0,0.2,0,0.4,0s0.2,0,0.4,0.2c5.2,3.4,11.6,4.9,17.8,3.9c0.2,0,0.4,0,0.6,0.2c0.2,0.2,0.2,0.4,0.4,0.6    c0.9,4.5,2.4,9,4.5,13.3c0,0.2,0,0.2,0,0.4c0,0.2,0,0.2,0,0.4c0,0.2-0.2,0.2-0.2,0.4c0,0-0.2,0.2-0.4,0.2    c-5.1,2.2-10.5,3.6-16.1,3.6c-0.2,0-0.4,0-0.6-0.2C25.2,74.7,25,74.6,25,74.4"/>
		<path class="st1" d="M77.8,97.2c-5.6,2.6-11.8,4.1-18,4.1c-1.1,0-2.1,0-3.2-0.2c-0.2,0-0.2,0-0.4,0s-0.2-0.2-0.2-0.2    s-0.2-0.2-0.2-0.4c0-0.2,0-0.2,0-0.4c1.3-5.2,4.5-9.9,8.8-13.3c4.3-3.4,9.5-5.1,15-5.1c4.9,0,7.1,2.2,7.1,5.2    C87,91,84,94.2,77.8,97.2z"/>
		<path class="st1" d="M41.9,97.2c3.4,1.5,6.7,2.6,10.3,3.4c0.2,0,0.4,0,0.6-0.2c0.2-0.2,0.4-0.4,0.4-0.6c0.7-3.4,2.2-6.6,4.3-9.4    c0.2-0.2,0.2-0.4,0.2-0.6c0-0.2-0.2-0.4-0.4-0.6c-2.2-2.2-5.1-4.1-8.1-5.4c-3-1.3-6.2-1.9-9.5-1.9c-4.9,0-7.1,2.2-7.1,5.2    C32.7,91,35.7,94.2,41.9,97.2"/>
	</g>
</g>
</svg>